<?xml version="1.0" encoding="UTF-8"?>
<svg id="Capa_1" data-name="Capa 1" xmlns="http://www.w3.org/2000/svg" viewBox="0 0 800 800">
  <path d="M400,717.32c-29.49,0-57.82-12.69-77.76-34.83h0c-20.06-22.08-31.03-50.82-30.9-80.92.07-15.26,12.46-27.59,27.71-27.59h.13c15.31.07,27.66,12.53,27.59,27.83-.07,16.2,5.79,31.62,16.5,43.41.04.04.07.08.11.12,9.44,10.52,22.79,16.55,36.62,16.55s27.18-6.03,36.63-16.55c.03-.04.07-.08.1-.12,10.71-11.8,16.57-27.21,16.5-43.41-.07-15.31,12.28-27.77,27.59-27.84h.13c15.25,0,27.64,12.32,27.71,27.59.13,30.05-10.8,58.73-30.79,80.8h0c-19.94,22.21-48.32,34.95-77.87,34.95Z"/>
  <path d="M591.71,629.41H208.29c-.37,0-.74,0-1.11-.02-44.29-1.78-79.06-39.72-77.74-84.71v-1.55c0-.29,0-.59.01-.88.94-29.63,15.16-55.75,28.9-81.01,11.34-20.83,22.05-40.52,22.22-57.19-2.05-61.6,19.33-120.44,60.25-165.73,41.23-45.63,97.36-72.11,158.06-74.56.75-.03,1.5-.03,2.24,0,60.7,2.46,116.84,28.94,158.06,74.56,40.92,45.29,62.31,104.12,60.26,165.73.17,16.62,10.86,36.25,22.16,57.03,13.77,25.3,28,51.45,28.92,81.2,0,.29.01.57.01.86v1.55c1.32,44.99-33.45,82.93-77.74,84.71-.37.01-.74.02-1.11.02ZM208.96,573.98h382.08c13.86-.81,24.64-13.21,24.11-27.88-.01-.33-.02-.66-.02-.99v-1.5c-.65-16.48-11.12-35.71-22.19-56.06-14.21-26.11-28.91-53.12-28.91-83.93,0-.33,0-.66.02-.99,3.46-96.98-70.03-179.03-164.03-183.47-94,4.43-167.49,86.49-164.03,183.47.01.33.02.66.02.99,0,30.87-14.73,57.92-28.97,84.09-11.06,20.31-21.5,39.51-22.17,55.9v1.49c0,.33,0,.66-.02.99-.52,14.66,10.26,27.07,24.12,27.88Z"/>
  <path d="M429.19,138.1h-58.38c-15.31,0-27.71-12.41-27.71-27.71s12.41-27.71,27.71-27.71h58.38c15.31,0,27.71,12.41,27.71,27.71s-12.41,27.71-27.71,27.71Z"/>
</svg>